<svg width="48" height="48" viewBox="0 0 48 48" fill="none" xmlns="http://www.w3.org/2000/svg">
<path fill-rule="evenodd" clip-rule="evenodd" d="M24 7.71428C22.4087 7.71428 20.8826 8.34641 19.7573 9.47163C19.0464 10.1826 18.5323 11.0536 18.2501 12H29.7499C29.4677 11.0536 28.9536 10.1826 28.2427 9.47163C27.1174 8.34641 25.5913 7.71428 24 7.71428ZM16.1208 5.83508C14.4395 7.51635 13.351 9.67957 12.9898 12H8.57143C3.83757 12 0 15.8376 0 20.5714V39.4286C0 44.1624 3.83757 48 8.57143 48H39.4286C44.1624 48 48 44.1624 48 39.4286V20.5714C48 15.8376 44.1624 12 39.4286 12H35.0102C34.6491 9.67957 33.5605 7.51635 31.8792 5.83508C29.7895 3.7454 26.9553 2.57143 24 2.57143C21.0447 2.57143 18.2105 3.7454 16.1208 5.83508Z" fill="#8FBFFA"/>
<path fill-rule="evenodd" clip-rule="evenodd" d="M34.9984 11.9272C34.9902 12.0044 34.9857 12.0829 34.9857 12.1623V47.8375C34.9857 47.8923 34.9878 47.9465 34.9919 48H39.2656C39.2694 47.9465 39.2714 47.8923 39.2714 47.8375V12.1623C39.2714 12.1077 39.2694 12.0536 39.2656 12H35.0101C35.0063 11.9757 35.0025 11.9514 34.9984 11.9272ZM13.0079 48C13.0119 47.9465 13.014 47.8923 13.014 47.8375V12.1623C13.014 12.0829 13.0096 12.0044 13.0012 11.9272C12.9973 11.9514 12.9934 11.9757 12.9896 12H8.73431C8.73029 12.0536 8.72827 12.1077 8.72827 12.1623V47.8375C8.72827 47.8923 8.73029 47.9465 8.73431 48H13.0079Z" fill="#2859C5"/>
</svg>
