<svg width="40" height="40" viewBox="0 0 40 40" fill="none" xmlns="http://www.w3.org/2000/svg">
<path fill-rule="evenodd" clip-rule="evenodd" d="M8.3335 3.33325H31.6668C34.4283 3.33325 36.6668 5.57183 36.6668 8.33325V31.6666C36.6668 34.428 34.4283 36.6666 31.6668 36.6666H8.3335C5.57207 36.6666 3.3335 34.428 3.3335 31.6666V8.33325C3.3335 5.57183 5.57207 3.33325 8.3335 3.33325ZM30.0098 28.3333C30.0098 27.8889 29.8323 27.4629 29.5168 27.1499L22.3502 19.9999L29.5168 12.8499C30.1704 12.1964 30.1704 11.1368 29.5168 10.4833C28.8633 9.82972 27.8037 9.82972 27.1502 10.4833L20.0002 17.6499L12.8502 10.4833C12.1966 9.82972 11.137 9.82972 10.4835 10.4833C9.82996 11.1368 9.82996 12.1964 10.4835 12.8499L17.6502 19.9999L10.4835 27.1499C10.168 27.4629 9.9905 27.8889 9.9905 28.3333C9.9905 28.7776 10.168 29.2036 10.4835 29.5166C10.7964 29.8321 11.2224 30.0096 11.6668 30.0096C12.1112 30.0096 12.5372 29.8321 12.8502 29.5166L20.0002 22.3499L27.1502 29.5166C27.4631 29.8321 27.8891 30.0096 28.3335 30.0096C28.7779 30.0096 29.2039 29.8321 29.5168 29.5166C29.8323 29.2036 30.0098 28.7776 30.0098 28.3333Z" fill="#701414"/>
</svg>
