<svg width="201" height="60" viewBox="0 0 201 60" fill="none" xmlns="http://www.w3.org/2000/svg">
<rect width="200" height="60" fill="white"/>
<path d="M9.63013 13C9.63013 7.47715 14.1073 3 19.6301 3H88.6301C94.153 3 98.6301 7.47715 98.6301 13V47C98.6301 52.5228 94.153 57 88.6301 57H19.6301C14.1073 57 9.63013 52.5228 9.63013 47V13Z" fill="#701414"/>
<path opacity="0.9" d="M154.893 44.1V15.9982H160.75V26.5639H160.929C161.186 25.9967 161.557 25.4204 162.043 24.8349C162.538 24.2403 163.179 23.7464 163.968 23.353C164.765 22.9505 165.755 22.7493 166.938 22.7493C168.478 22.7493 169.899 23.1518 171.2 23.9568C172.502 24.7526 173.542 25.9555 174.322 27.5655C175.101 29.1664 175.49 31.1743 175.49 33.5893C175.49 35.9403 175.11 37.9253 174.349 39.5445C173.597 41.1545 172.571 42.3757 171.269 43.2081C169.977 44.0314 168.528 44.4431 166.924 44.4431C165.787 44.4431 164.82 44.2556 164.023 43.8805C163.234 43.5054 162.588 43.0343 162.084 42.4672C161.58 41.8909 161.195 41.31 160.929 40.7245H160.668V44.1H154.893ZM160.626 33.5619C160.626 34.8151 160.801 35.9083 161.149 36.8413C161.497 37.7744 162.001 38.5016 162.661 39.0231C163.321 39.5353 164.124 39.7915 165.068 39.7915C166.021 39.7915 166.828 39.5308 167.488 39.0093C168.148 38.4788 168.647 37.747 168.987 36.8139C169.335 35.8717 169.509 34.7877 169.509 33.5619C169.509 32.3452 169.339 31.2749 169 30.351C168.661 29.4271 168.162 28.7044 167.502 28.183C166.842 27.6616 166.03 27.4009 165.068 27.4009C164.114 27.4009 163.308 27.6524 162.648 28.1556C161.997 28.6587 161.497 29.3722 161.149 30.2961C160.801 31.22 160.626 32.3086 160.626 33.5619Z" fill="#25201D"/>
<path opacity="0.9" d="M138.344 44.498C136.997 44.498 135.796 44.2647 134.742 43.7982C133.687 43.3225 132.853 42.6227 132.239 41.6988C131.634 40.7657 131.332 39.6039 131.332 38.2135C131.332 37.0426 131.547 36.0592 131.978 35.2633C132.409 34.4675 132.995 33.8271 133.738 33.3423C134.48 32.8575 135.324 32.4916 136.268 32.2446C137.221 31.9976 138.22 31.8238 139.265 31.7232C140.494 31.5951 141.484 31.4762 142.235 31.3664C142.987 31.2475 143.533 31.0737 143.872 30.845C144.211 30.6163 144.381 30.2778 144.381 29.8296V29.7473C144.381 28.8782 144.106 28.2059 143.556 27.7302C143.015 27.2545 142.245 27.0167 141.245 27.0167C140.191 27.0167 139.353 27.2499 138.729 27.7165C138.106 28.1739 137.693 28.7502 137.492 29.4454L132.074 29.0063C132.349 27.7256 132.89 26.6187 133.697 25.6857C134.503 24.7435 135.544 24.0208 136.818 23.5177C138.101 23.0054 139.586 22.7493 141.273 22.7493C142.446 22.7493 143.569 22.8865 144.642 23.1609C145.723 23.4353 146.681 23.8607 147.516 24.437C148.359 25.0133 149.024 25.7543 149.509 26.6599C149.995 27.5564 150.238 28.6312 150.238 29.8845V44.1H144.683V41.1773H144.518C144.179 41.836 143.725 42.4169 143.157 42.92C142.588 43.414 141.905 43.8027 141.108 44.0863C140.31 44.3608 139.389 44.498 138.344 44.498ZM140.022 40.4638C140.883 40.4638 141.644 40.2946 142.304 39.9561C142.964 39.6085 143.482 39.142 143.858 38.5565C144.234 37.9711 144.422 37.3079 144.422 36.5669V34.3303C144.238 34.4492 143.986 34.559 143.666 34.6596C143.354 34.7511 143.001 34.838 142.607 34.9203C142.213 34.9935 141.818 35.0621 141.424 35.1261C141.03 35.181 140.673 35.2313 140.352 35.2771C139.664 35.3777 139.064 35.5378 138.55 35.7573C138.037 35.9769 137.638 36.2742 137.354 36.6492C137.07 37.0151 136.928 37.4725 136.928 38.0214C136.928 38.8172 137.217 39.4256 137.794 39.8464C138.381 40.258 139.123 40.4638 140.022 40.4638Z" fill="#25201D"/>
<path opacity="0.9" d="M107.929 44.1V15.9982H119.039C121.175 15.9982 122.994 16.4053 124.498 17.2195C126.001 18.0245 127.147 19.145 127.935 20.5812C128.733 22.0083 129.132 23.6549 129.132 25.521C129.132 27.3871 128.728 29.0337 127.922 30.4608C127.115 31.8878 125.946 32.9993 124.415 33.7951C122.894 34.591 121.051 34.9889 118.888 34.9889H111.806V30.2275H117.925C119.071 30.2275 120.015 30.0308 120.758 29.6375C121.509 29.235 122.069 28.6816 122.435 27.9772C122.811 27.2637 122.999 26.4449 122.999 25.521C122.999 24.5879 122.811 23.7738 122.435 23.0786C122.069 22.3742 121.509 21.8299 120.758 21.4457C120.006 21.0523 119.053 20.8557 117.898 20.8557H113.883V44.1H107.929Z" fill="#25201D"/>
<path d="M69.3057 44.1V15.9982H75.1633V26.5639H75.342C75.5987 25.9967 75.9699 25.4204 76.4558 24.8349C76.9508 24.2403 77.5925 23.7464 78.3808 23.353C79.1783 22.9505 80.1684 22.7493 81.3509 22.7493C82.8909 22.7493 84.3118 23.1518 85.6135 23.9568C86.9151 24.7526 87.9556 25.9555 88.7348 27.5655C89.5139 29.1664 89.9035 31.1743 89.9035 33.5893C89.9035 35.9403 89.5231 37.9253 88.7623 39.5445C88.0106 41.1545 86.9839 42.3757 85.6822 43.2081C84.3897 44.0314 82.9413 44.4431 81.3371 44.4431C80.2004 44.4431 79.2333 44.2556 78.4358 43.8805C77.6475 43.5054 77.0012 43.0343 76.497 42.4672C75.9929 41.8909 75.6079 41.31 75.342 40.7245H75.0808V44.1H69.3057ZM75.0395 33.5619C75.0395 34.8151 75.2137 35.9083 75.562 36.8413C75.9104 37.7744 76.4145 38.5016 77.0745 39.0231C77.7346 39.5353 78.5367 39.7915 79.4808 39.7915C80.4342 39.7915 81.2409 39.5308 81.9009 39.0093C82.5609 38.4788 83.0605 37.747 83.3997 36.8139C83.748 35.8717 83.9222 34.7877 83.9222 33.5619C83.9222 32.3452 83.7526 31.2749 83.4134 30.351C83.0742 29.4271 82.5746 28.7044 81.9146 28.183C81.2546 27.6616 80.4434 27.4009 79.4808 27.4009C78.5275 27.4009 77.7208 27.6524 77.0608 28.1556C76.41 28.6587 75.9104 29.3722 75.562 30.2961C75.2137 31.22 75.0395 32.3086 75.0395 33.5619Z" fill="white"/>
<path d="M58.6526 35.1261V23.0237H64.5102V44.1001H58.8864V40.2717H58.6664C58.1897 41.5067 57.3968 42.4992 56.2876 43.2493C55.1876 43.9994 53.8446 44.3745 52.2588 44.3745C50.8471 44.3745 49.605 44.0543 48.5325 43.414C47.4599 42.7736 46.6212 41.8634 46.0162 40.6834C45.4203 39.5033 45.1178 38.09 45.1086 36.4434V23.0237H50.9662V35.4006C50.9754 36.6447 51.31 37.628 51.97 38.3507C52.63 39.0734 53.5146 39.4347 54.6238 39.4347C55.3297 39.4347 55.9897 39.2746 56.6038 38.9545C57.218 38.6251 57.713 38.1403 58.0889 37.5C58.4739 36.8596 58.6618 36.0684 58.6526 35.1261Z" fill="white"/>
<path d="M20.1484 44.1V15.9982H31.2586C33.3945 15.9982 35.2141 16.4053 36.7175 17.2195C38.2208 18.0245 39.3667 19.145 40.155 20.5812C40.9526 22.0083 41.3513 23.6549 41.3513 25.521C41.3513 27.3871 40.948 29.0337 40.1413 30.4608C39.3346 31.8878 38.1658 32.9993 36.635 33.7951C35.1133 34.591 33.2708 34.9889 31.1074 34.9889H24.026V30.2275H30.1449C31.2907 30.2275 32.2349 30.0308 32.9774 29.6375C33.7291 29.235 34.2883 28.6816 34.6549 27.9772C35.0308 27.2637 35.2187 26.4449 35.2187 25.521C35.2187 24.5879 35.0308 23.7738 34.6549 23.0786C34.2883 22.3742 33.7291 21.8299 32.9774 21.4457C32.2257 21.0523 31.2724 20.8557 30.1174 20.8557H26.1023V44.1H20.1484Z" fill="white"/>
</svg>
