<svg width="44" height="44" viewBox="0 0 44 44" fill="none" xmlns="http://www.w3.org/2000/svg">
<path fill-rule="evenodd" clip-rule="evenodd" d="M27.6483 6.01986C27.1308 5.81753 26.5925 5.65692 26.0378 5.54184C25.0291 5.33257 23.8931 5.33286 22.232 5.33329L22.0001 5.33333L21.7682 5.33329C20.1071 5.33286 18.971 5.33257 17.9623 5.54184C14.4508 6.27036 11.5983 8.82348 10.4865 12.2331C10.1671 13.2124 10.0419 14.3416 9.85892 15.9926L9.83335 16.2231L9.37172 20.3778C9.19795 21.9418 9.13102 22.473 8.98033 22.9665C8.9462 23.0783 8.90881 23.1891 8.8682 23.2987C8.68894 23.7827 8.42023 24.2458 7.61063 25.5951L5.60249 28.942L5.54416 29.0392L5.54414 29.0392C5.19288 29.6241 4.82304 30.24 4.59948 30.779C4.35798 31.3613 4.0494 32.4073 4.65567 33.4781C5.26194 34.5489 6.31762 34.8224 6.94118 34.9149C7.51845 35.0006 8.23684 35.0003 8.91912 35H8.91915L9.03246 35H34.9677L35.081 35H35.081C35.7633 35.0003 36.4817 35.0006 37.059 34.9149C37.6825 34.8224 38.7382 34.5489 39.3445 33.4781C39.9508 32.4073 39.6422 31.3613 39.4007 30.779C39.1771 30.24 38.8073 29.6241 38.4561 29.0392L38.456 29.0392L38.3977 28.942L36.3895 25.5951C35.5799 24.2458 35.3112 23.7827 35.132 23.2987C35.0914 23.1891 35.054 23.0783 35.0198 22.9665C34.8691 22.473 34.8022 21.9418 34.6284 20.3778L34.5545 19.7128C33.533 20.2168 32.3829 20.5 31.1667 20.5C30.9813 20.5 30.7974 20.4934 30.6152 20.4805L30.6529 20.8195L30.6719 20.9908C30.8193 22.3198 30.9215 23.2413 31.1942 24.1345C31.251 24.3209 31.3134 24.5055 31.381 24.6882C31.7054 25.5639 32.1826 26.3588 32.8708 27.5053L32.8708 27.5053L32.9596 27.6531L34.9677 31L9.03246 31L11.0406 27.6531L11.1293 27.5053C11.8175 26.3589 12.2947 25.5639 12.6191 24.6882C12.6868 24.5055 12.7491 24.3209 12.806 24.1345C13.0787 23.2414 13.1809 22.3199 13.3282 20.9909L13.3473 20.8195L13.8089 16.6648C14.0277 14.6955 14.1143 14.0102 14.2894 13.4732C14.9565 11.4274 16.668 9.89555 18.7749 9.45843C19.328 9.34369 20.0187 9.33333 22.0001 9.33333C23.1192 9.33333 23.8266 9.33664 24.33 9.36019C25.0584 7.92923 26.2229 6.75744 27.6483 6.01986ZM31.9426 9.24892C31.6925 9.19503 31.4329 9.16666 31.1667 9.16666C29.8509 9.16666 28.697 9.85971 28.0501 10.9007C28.8042 11.5885 29.3833 12.4689 29.7108 13.4732C29.8765 13.9814 29.9629 14.6226 30.1572 16.3593C30.4779 16.4509 30.8166 16.5 31.1667 16.5C32.3319 16.5 33.3702 15.9564 34.0419 15.109C33.9039 13.9197 33.7726 13.0271 33.5137 12.2331C33.1571 11.1396 32.6215 10.1343 31.9426 9.24892ZM35.7237 32.3587C35.7237 32.3587 35.7231 32.3571 35.7222 32.3538L35.7237 32.3587ZM7.47846 30.9492L7.48321 30.9504C7.47996 30.9497 7.47842 30.9493 7.47846 30.9492ZM8.27793 32.354L8.27647 32.3587C8.27642 32.3587 8.27687 32.3572 8.27793 32.354Z" fill="#222222"/>
<path d="M16.6874 33.7441C17.0008 35.1085 17.6913 36.3141 18.6518 37.174C19.6124 38.0339 20.7893 38.5 22 38.5C23.2107 38.5 24.3876 38.0339 25.3482 37.174C26.3087 36.3141 26.9992 35.1085 27.3126 33.7441" stroke="#222222" stroke-width="4" stroke-linecap="round"/>
<circle cx="31.1667" cy="12.8333" r="3.66667" fill="#222222"/>
</svg>
