<svg width="48" height="48" viewBox="0 0 48 48" fill="none" xmlns="http://www.w3.org/2000/svg">
<g clip-path="url(#clip0_383_1144)">
<path fill-rule="evenodd" clip-rule="evenodd" d="M23.9999 4.28572C19.908 4.28572 15.9837 5.91124 13.0902 8.80465C10.1968 11.6981 8.57132 15.6224 8.57132 19.7143V31.7143C8.57132 32.6236 8.21009 33.4957 7.56713 34.1387C6.92413 34.7815 6.05208 35.1429 5.14275 35.1429C4.19599 35.1429 3.42847 35.9105 3.42847 36.8572C3.42847 37.8038 4.19599 38.5714 5.14275 38.5714H42.857C43.8037 38.5714 44.5713 37.8038 44.5713 36.8572C44.5713 35.9105 43.8037 35.1429 42.857 35.1429C41.9478 35.1429 41.0755 34.7815 40.4327 34.1387C39.7898 33.4957 39.4285 32.6236 39.4285 31.7143V19.7143C39.4285 15.6224 37.803 11.6981 34.9096 8.80465C32.0161 5.91124 28.0918 4.28572 23.9999 4.28572Z" fill="#8FBFFA"/>
<path fill-rule="evenodd" clip-rule="evenodd" d="M12.9018 1.07162C13.7302 2.22512 13.4667 3.83179 12.3132 4.66021C10.0957 6.25274 8.28902 8.35 7.04225 10.7787C5.79545 13.2075 5.1444 15.898 5.14286 18.628C5.14207 20.0482 3.99014 21.1988 2.56997 21.198C1.14981 21.1972 -0.000803322 20.0453 4.20824e-07 18.6251C0.00200886 15.0792 0.847629 11.5846 2.46701 8.43006C4.08638 5.2755 6.43306 2.55148 9.3132 0.483023C10.4667 -0.345403 12.0734 -0.0818784 12.9018 1.07162ZM18 45.4288C18 44.0086 19.1513 42.8573 20.5714 42.8573H27.4286C28.8487 42.8573 30 44.0086 30 45.4288C30 46.8489 28.8487 48.0002 27.4286 48.0002H20.5714C19.1513 48.0002 18 46.8489 18 45.4288ZM38.687 0.483023C37.5336 -0.345403 35.9266 -0.0818784 35.0983 1.07162C34.2699 2.22512 34.5336 3.83179 35.687 4.66021C37.9042 6.25274 39.7111 8.35 40.9581 10.7787C42.2047 13.2075 42.8558 15.898 42.8571 18.628C42.8582 20.0482 44.0098 21.1988 45.4303 21.198C46.8504 21.1972 48.001 20.0453 48 18.6251C47.9983 15.0792 47.1525 11.5846 45.5331 8.43006C43.9138 5.2755 41.567 2.55148 38.687 0.483023Z" fill="#2859C5"/>
</g>
<defs>
<clipPath id="clip0_383_1144">
<rect width="48" height="48" fill="white"/>
</clipPath>
</defs>
</svg>
