<svg width="48" height="48" viewBox="0 0 48 48" fill="none" xmlns="http://www.w3.org/2000/svg">
<path d="M20.5715 45.4286H27.4287" stroke="black" stroke-width="4" stroke-linecap="round" stroke-linejoin="round"/>
<path d="M37.7142 19.7143C37.7142 16.077 36.2694 12.5888 33.6974 10.0168C31.1255 7.4449 27.6372 6 24 6C20.3627 6 16.8744 7.4449 14.3025 10.0168C11.7306 12.5888 10.2857 16.077 10.2857 19.7143V31.7143C10.2857 33.0782 9.74383 34.3865 8.77937 35.351C7.81491 36.3154 6.50678 36.8571 5.14282 36.8571H42.8571C41.4932 36.8571 40.1849 36.3154 39.2204 35.351C38.256 34.3865 37.7142 33.0782 37.7142 31.7143V19.7143Z" stroke="black" stroke-width="4" stroke-linecap="round" stroke-linejoin="round"/>
<path d="M1.71436 19.2686C1.7162 16.005 2.49447 12.7888 3.98489 9.88549C5.47529 6.98218 7.63505 4.47514 10.2858 2.57143" stroke="black" stroke-width="4" stroke-linecap="round" stroke-linejoin="round"/>
<path d="M46.2858 19.2686C46.2841 16.005 45.5058 12.7888 44.0154 9.88549C42.525 6.98218 40.365 4.47514 37.7144 2.57143" stroke="black" stroke-width="4" stroke-linecap="round" stroke-linejoin="round"/>
</svg>
