<svg width="40" height="40" viewBox="0 0 40 40" fill="none" xmlns="http://www.w3.org/2000/svg">
<path d="M34.8999 28.3335H33.3333V16.6668C33.3333 9.30303 27.3637 3.3335 19.9999 3.3335C12.6361 3.3335 6.6666 9.30303 6.6666 16.6668V28.3335H5.18327C4.26279 28.3335 3.5166 29.0797 3.5166 30.0002C3.5166 30.9206 4.26279 31.6668 5.18327 31.6668H34.8999C35.8204 31.6668 36.5666 30.9206 36.5666 30.0002C36.5666 29.0797 35.8204 28.3335 34.8999 28.3335Z" fill="#004B64"/>
<path d="M19.9998 36.6668C22.1136 36.6609 23.9952 35.3264 24.6998 33.3335H15.2998C16.0044 35.3264 17.886 36.6609 19.9998 36.6668Z" fill="#004B64"/>
</svg>
