<svg width="40" height="40" viewBox="0 0 40 40" fill="none" xmlns="http://www.w3.org/2000/svg">
<path fill-rule="evenodd" clip-rule="evenodd" d="M8.3335 3.33325H31.6668C34.4283 3.33325 36.6668 5.57183 36.6668 8.33325V31.6666C36.6668 34.428 34.4283 36.6666 31.6668 36.6666H8.3335C5.57207 36.6666 3.3335 34.428 3.3335 31.6666V8.33325C3.3335 5.57183 5.57207 3.33325 8.3335 3.33325ZM17.0835 27.7166L29.5168 14.4833C30.0809 13.8293 30.052 12.8527 29.4502 12.2333C29.1372 11.9177 28.7112 11.7403 28.2668 11.7403C27.8224 11.7403 27.3964 11.9177 27.0835 12.2333L15.8668 24.1666L12.9335 21.0499C12.5386 20.5667 11.9068 20.3446 11.2964 20.4744C10.686 20.6042 10.1992 21.0641 10.0351 21.6662C9.87089 22.2682 10.0568 22.9116 10.5168 23.3333L14.6502 27.7166C14.9672 28.0491 15.4074 28.2361 15.8668 28.2333C16.3263 28.2361 16.7665 28.0491 17.0835 27.7166Z" fill="black"/>
</svg>
