<svg width="50" height="50" viewBox="0 0 50 50" fill="none" xmlns="http://www.w3.org/2000/svg">
<path d="M21.1328 13.8073C22.7716 9.72191 23.591 7.6792 25 7.6792C26.409 7.6792 27.2284 9.72191 28.8671 13.8073L28.9435 13.9976C29.8693 16.3056 30.3322 17.4596 31.2756 18.1611C32.2191 18.8625 33.4575 18.9734 35.9344 19.1953L36.3822 19.2354C40.436 19.5984 42.4629 19.7799 42.8966 21.0695C43.3303 22.359 41.825 23.7285 38.8145 26.4674L37.8098 27.3815C36.2858 28.768 35.5238 29.4613 35.1687 30.3699C35.1024 30.5394 35.0473 30.713 35.0038 30.8897C34.7703 31.8369 34.9935 32.8426 35.4397 34.854L35.5786 35.4801C36.3988 39.1766 36.8089 41.0249 36.0929 41.8221C35.8253 42.12 35.4776 42.3345 35.0913 42.4399C34.0576 42.722 32.5899 41.526 29.6546 39.1342C27.7271 37.5636 26.7634 36.7783 25.657 36.6016C25.2217 36.5321 24.7782 36.5321 24.343 36.6016C23.2366 36.7783 22.2728 37.5636 20.3454 39.1342C17.4101 41.526 15.9424 42.722 14.9087 42.4399C14.5224 42.3345 14.1747 42.12 13.9071 41.8221C13.1911 41.0249 13.6012 39.1766 14.4213 35.4801L14.5602 34.854C15.0065 32.8426 15.2296 31.8369 14.9962 30.8897C14.9527 30.713 14.8976 30.5394 14.8313 30.3699C14.4762 29.4613 13.7142 28.768 12.1902 27.3815L11.1855 26.4674C8.17495 23.7285 6.6697 22.359 7.10341 21.0695C7.53711 19.7799 9.564 19.5984 13.6178 19.2354L14.0656 19.1953C16.5425 18.9734 17.7809 18.8625 18.7244 18.1611C19.6678 17.4596 20.1307 16.3056 21.0565 13.9976L21.1328 13.8073Z" stroke="black" stroke-width="4"/>
</svg>
